<?xml version="1.0" encoding="UTF-8"?>
<!DOCTYPE svg PUBLIC "-//W3C//DTD SVG 1.1//EN" "http://www.w3.org/Graphics/SVG/1.1/DTD/svg11.dtd">
<!-- Creator: CorelDRAW 2021 (64-Bit) -->
<svg xmlns="http://www.w3.org/2000/svg" xml:space="preserve" width="7.90669in" height="2.27126in" version="1.1" style="shape-rendering:geometricPrecision; text-rendering:geometricPrecision; image-rendering:optimizeQuality; fill-rule:evenodd; clip-rule:evenodd"
viewBox="0 0 7906.69 2271.26"
 xmlns:xlink="http://www.w3.org/1999/xlink"
 xmlns:xodm="http://www.corel.com/coreldraw/odm/2003">
 <defs>
  <style type="text/css">
   <![CDATA[
    .str0 {stroke:#F3942A;stroke-width:27.78;stroke-miterlimit:22.926}
    .fil0 {fill:none}
    .fil4 {fill:#2B2A29}
    .fil5 {fill:#FFED00}
    .fil1 {fill:#F3942A}
    .fil3 {fill:#266544}
    .fil2 {fill:#266544;fill-rule:nonzero}
   ]]>
  </style>
 </defs>
 <g id="Layer_x0020_1">
  <metadata id="CorelCorpID_0Corel-Layer"/>
  <polygon class="fil0" points="-551.03,-517.74 8457.72,-517.74 8457.72,2789 -551.03,2789 "/>
  <g id="_2513556441216">
   <path class="fil1" d="M5903.6 13.13c97.9,0 177.26,79.36 177.26,177.28 0,97.9 -79.36,177.32 -177.26,177.32 -97.92,0 -177.28,-79.42 -177.28,-177.32 0,-97.92 79.36,-177.28 177.28,-177.28z"/>
   <g>
    <path class="fil2" d="M4905.11 963.56c0,-130.63 -18.28,-225.35 -55.15,-284.16 -36.9,-59.16 -95.39,-88.74 -175.47,-88.74 -82.77,0 -143.92,29.58 -183.14,89.07 -39.54,59.48 -59.16,151.54 -59.16,276.19l0 548.02 -183.11 0 0 -1071.14 171.48 0 0 125.62c35.56,-47.86 75.77,-83.74 120.64,-107.34 45.22,-23.58 96.39,-35.56 153.88,-35.56 77.76,0 142.25,14.96 194.09,44.87 51.84,29.58 94.04,76.44 126.94,139.91 33.24,-62.15 77.11,-108.66 131.94,-138.92 54.5,-30.58 121.31,-45.87 200.07,-45.87 120.99,0 218.02,39.54 290.8,118.33 72.78,78.76 109.34,184.11 109.34,315.7l0 654.39 -193.75 0 0 -624.14c0,-91.38 -19.94,-162.52 -60.16,-213.04 -39.89,-50.85 -96.04,-76.09 -167.5,-76.09 -83.42,0 -143.57,26.92 -179.8,80.75 -36.55,53.86 -54.83,144.92 -54.83,272.53l0 560 -187.12 0 0 -540.37z"/>
    <polygon class="fil2" points="5798.38,1503.93 5798.38,432.79 5989.14,432.79 5989.14,1503.93 "/>
    <path class="fil2" d="M6232 1503.93l-192.75 0 0 -1071.14 185.1 0 0 121.96c40.21,-48.18 84.44,-83.41 132.94,-105.67 48.21,-22.26 103.71,-33.57 165.86,-33.57 140.24,0 247.93,41.21 323.03,123.63 74.77,82.42 112.32,200.74 112.32,354.62l0 610.17 -193.75 0 0 -568.31c0,-113.64 -20.94,-198.07 -63.15,-252.91 -42.2,-54.83 -107.69,-82.09 -196.09,-82.09 -96.04,0 -165.51,32.24 -208.71,96.71 -43.2,64.81 -64.81,171.17 -64.81,320.07l0 486.54z"/>
    <polygon class="fil3" points="2873.78,787.33 1785.78,787.33 1865.56,609.2 2873.78,609.2 "/>
    <path class="fil2" d="M6970.47 961.54c0,108.37 35.88,199.07 107.67,272.53 71.46,73.45 159.21,110.01 263.22,110.01 94.72,0 178.13,-36.9 250.59,-110.33 72.46,-73.78 108.34,-159.86 108.34,-258.56 0,-105.03 -35.56,-195.09 -107.34,-270.22 -71.79,-74.78 -156.87,-112.32 -255.57,-112.32 -101.02,0 -187.77,35.56 -259.23,107.02 -71.79,71.44 -107.67,158.86 -107.67,261.87zm720.18 542.39l0 -131.59c-49.18,51.17 -104.35,90.06 -164.84,116.31 -60.83,26.24 -125.62,39.54 -194.42,39.54 -160.85,0 -294.46,-53.83 -401.14,-161.17 -106.35,-107.34 -159.53,-241.95 -159.53,-403.45 0,-75.44 13.3,-146.91 39.89,-214.36 26.59,-67.48 64.46,-126.96 113.99,-178.13 53.83,-56.52 112.67,-98.06 176.46,-124.97 64.14,-26.92 136.92,-40.54 218.7,-40.54 72.78,0 139.91,12.94 202.06,38.87 61.8,25.92 118.97,65.49 170.81,117.98l0 -476.24 192.78 0 0 1417.77 -194.77 0z"/>
    <polygon class="fil3" points="4198.96,415.43 4198.96,1503.42 4020.83,1503.42 4020.83,415.43 "/>
    <path class="fil1" d="M3321.32 569.36c102.44,-244.37 378.96,-324.59 607.83,-175.9 268.63,174.5 300.2,564.17 136.25,820.9 -214.77,336.32 -705.4,416.37 -953.11,82.26l-606.86 -868.44c-267.87,-257.94 -689.12,0.35 -769.3,309.27 -82.37,317.29 134.61,633.16 441.13,715.76 157.57,42.45 299.18,8.85 449.64,-37.41l10.77 18.68c-360.55,218.53 -830.54,109.28 -1013.57,-296.94 -188.58,-418.47 78.11,-935.86 535.99,-1014.62 444.66,-76.47 692.21,342.97 896,662.61 140.4,220.17 239.29,592.43 566.65,529.09 407,-78.73 581.13,-728.63 139.05,-886.81 -179.94,-64.39 -313.63,22.66 -440.46,141.55z"/>
    <polygon class="fil2" points="3057.89,708.93 3057.89,521.78 2906,521.78 2906,346.63 3057.89,346.63 3057.89,84.95 3249.64,0 3249.64,346.63 3401.53,346.63 3401.53,406.33 3308.56,521.78 3249.64,521.78 3249.64,1070.28 "/>
    <polygon class="fil2" points="1493.66,86.16 1493.66,1503.93 1284.01,1503.93 1284.01,434.83 762.12,1303.11 736.28,1302.35 212.89,433.7 212.89,1503.93 0.95,1503.93 0.95,86.16 240.24,86.16 750.71,933.17 1257.04,86.16 "/>
   </g>
  </g>
  <path class="fil4" d="M-0 2156.57c7.63,0 13.46,-0.83 17.45,-2.5 3.99,-1.67 6.93,-4.19 8.72,-7.48 1.8,-3.3 2.95,-7.76 3.25,-13.22 0.3,-5.45 0.5,-11.87 0.5,-19.2l0 -249.35c0,-7.65 -0.2,-14.17 -0.5,-19.44 -0.3,-5.29 -1.44,-9.67 -3.25,-12.97 -1.79,-3.28 -4.73,-5.81 -8.72,-7.48 -3.99,-1.67 -9.81,-2.5 -17.45,-2.5l0 -7.48 142.11 0 0 7.48c-7.3,0 -13.08,0.86 -17.2,2.5 -4.13,1.63 -7.15,4.16 -8.98,7.48 -1.82,3.33 -2.94,7.68 -3.24,12.97 -0.3,5.28 -0.5,11.86 -0.5,19.44l0 249.35c0,7.26 0.2,13.74 0.5,19.2 0.3,5.46 1.41,9.89 3.24,13.22 1.84,3.31 4.85,5.84 8.98,7.48 4.11,1.63 9.89,2.5 17.2,2.5l0 7.48 -142.11 0 0 -7.48zm163.57 -194c0,-6.31 1.74,-12.47 5.23,-18.45 3.48,-5.98 8.17,-11.42 13.96,-16.21 5.78,-4.79 12.66,-8.67 20.45,-11.46 7.78,-2.8 16.04,-4.24 24.67,-4.24 11.64,0 22.65,2.7 32.92,7.98 10.28,5.29 17.45,13.3 21.44,23.94 16.29,-24.6 40.73,-36.9 73.3,-36.9 9.31,0 18.57,0.94 27.68,2.73 9.11,1.81 17.62,4.49 25.44,7.98 7.81,3.5 14.65,7.68 20.43,12.47 5.8,4.79 10.23,10.05 13.23,15.7 8.64,-13.29 19.11,-23.1 31.41,-29.42 12.3,-6.31 25.93,-9.47 40.9,-9.47 13.62,0 26.26,2.33 37.9,6.98 11.62,4.66 21.72,10.83 30.16,18.45 8.45,7.62 15.16,16.4 19.95,26.19 4.79,9.77 7.24,20.09 7.24,30.66l0 124.68c0,6.25 1.27,11.17 3.74,14.47 2.46,3.28 5.56,4.98 9.22,4.98 3.66,0 8.19,-1.6 13.48,-4.73 5.28,-3.13 10.63,-7.4 15.96,-12.72 0,6.31 -1.76,12.47 -5.25,18.46 -3.48,5.98 -8.06,11.39 -13.71,16.21 -5.65,4.82 -12.3,8.64 -19.94,11.46 -7.65,2.83 -15.79,4.24 -24.44,4.24 -7.3,0 -14.57,-1.2 -21.69,-3.5 -7.11,-2.3 -13.49,-5.76 -18.94,-10.21 -5.46,-4.46 -9.93,-10.01 -13.22,-16.46 -3.28,-6.46 -4.98,-13.89 -4.98,-22.2l0 -124.68c0,-11.29 -1.16,-21.02 -3.49,-29.17 -2.34,-8.14 -5.35,-14.91 -8.98,-20.2 -3.63,-5.28 -7.9,-9.22 -12.72,-11.72 -4.82,-2.5 -9.55,-3.74 -14.2,-3.74 -5.32,0 -10.22,1.24 -14.72,3.74 -4.49,2.5 -8.48,5.73 -11.97,9.72 -3.49,3.99 -6.67,8.34 -9.47,12.97 -2.8,4.62 -5.07,9.14 -6.74,13.46l0 149.61c0,7.26 0.2,13.74 0.5,19.2 0.3,5.46 1.41,9.89 3.23,13.22 1.84,3.31 4.85,5.84 8.98,7.48 4.12,1.63 9.88,2.5 17.2,2.5l0 7.48 -139.63 0 0 -7.48c7.65,0 13.46,-0.83 17.45,-2.5 3.99,-1.67 6.9,-4.16 8.74,-7.48 1.82,-3.33 2.94,-7.76 3.23,-13.22 0.3,-5.45 0.5,-11.87 0.5,-19.2l0 -124.68c0,-11.29 -1.19,-21.05 -3.49,-29.17 -2.29,-8.11 -5.35,-14.91 -8.98,-20.2 -3.63,-5.28 -7.83,-9.25 -12.45,-11.72 -4.63,-2.46 -9.31,-3.74 -13.96,-3.74 -5.33,0 -10.22,1.24 -14.72,3.74 -4.49,2.5 -8.56,5.73 -12.22,9.72 -3.66,3.99 -6.93,8.34 -9.72,12.97 -2.8,4.62 -5.07,9.3 -6.74,13.96l0 149.1c0,7.26 0.2,13.74 0.5,19.2 0.3,5.46 1.42,9.89 3.24,13.22 1.84,3.31 4.85,5.84 8.98,7.48 4.12,1.63 9.9,2.5 17.2,2.5l0 7.48 -139.63 0 0 -7.48c7.65,0 13.48,-0.83 17.46,-2.5 3.99,-1.67 6.93,-4.19 8.72,-7.48 1.81,-3.3 2.94,-7.76 3.25,-13.22 0.3,-5.45 0.49,-11.87 0.49,-19.2l0 -152.1c0,-6.31 -1.16,-10.71 -3.49,-13.21 -2.32,-2.5 -5.15,-3.74 -8.48,-3.74 -4.32,0 -9.17,1.6 -14.45,4.73 -5.3,3.13 -10.65,7.4 -15.96,12.72zm526.12 139.13c0,-16.95 4.85,-30.36 14.46,-40.15 9.61,-9.77 21.57,-17.15 35.66,-21.94 14.1,-4.79 29.18,-7.81 45.14,-8.97 15.96,-1.16 30.25,-1.74 42.88,-1.74 3.99,0 7.73,0 11.21,0 3.5,0 6.91,-0.17 10.23,-0.5l0 -14.47c0,-19.62 -1.27,-35.69 -3.74,-48.13 -2.46,-12.43 -6.06,-22.35 -10.71,-29.67 -4.67,-7.3 -10.4,-12.38 -17.21,-15.2 -6.82,-2.83 -14.55,-4.24 -23.19,-4.24 -6.99,0 -12.97,0.83 -17.95,2.5 3.99,6.98 6.72,13.96 8.23,20.94 1.49,6.99 2.24,12.98 2.24,17.95 0,12.98 -3.66,23.03 -10.98,30.17 -7.32,7.15 -16.29,10.73 -26.92,10.73 -10.98,0 -19.87,-3.41 -26.69,-10.22 -6.81,-6.82 -10.22,-15.55 -10.22,-26.19 0,-6.99 1.74,-13.79 5.23,-20.45 3.5,-6.65 8.94,-12.58 16.21,-17.7 7.29,-5.12 16.71,-9.31 28.18,-12.47 11.46,-3.16 25.19,-4.73 41.15,-4.73 20.28,0 38.26,2.69 53.86,7.98 15.58,5.28 28.87,12.74 39.64,22.19 10.78,9.44 18.94,20.69 24.43,33.66 5.5,12.96 8.23,27.31 8.23,42.88l0 99.74c0,6.25 1.19,11.34 3.5,14.97 2.3,3.63 5.48,5.48 9.47,5.48 3.66,0 8.06,-1.59 13.21,-4.74 5.15,-3.16 10.4,-7.4 15.71,-12.7 0,6.31 -1.7,12.48 -4.98,18.44 -3.3,5.95 -7.85,11.34 -13.46,15.96 -5.62,4.63 -12.06,8.4 -19.21,11.23 -7.15,2.83 -14.55,4.24 -22.2,4.24 -12.96,0 -24.3,-3.87 -33.91,-11.48 -9.61,-7.6 -16.44,-17.28 -20.43,-28.92 -7.32,13.96 -17.22,25.02 -29.69,33.16 -12.45,8.15 -26.67,12.22 -42.63,12.22 -31.26,0 -54.87,-6.39 -70.82,-19.19 -15.96,-12.8 -23.94,-29.67 -23.94,-50.62zm113.7 51.36c5.65,0 10.92,-1.35 15.71,-3.99 4.79,-2.62 9.17,-6.02 12.97,-9.97 3.79,-3.96 7.15,-8.22 9.97,-12.71 2.83,-4.49 5.23,-8.73 7.23,-12.72l0 -72.31c-7.65,0 -14.98,0.2 -21.94,0.5 -6.94,0.3 -11.64,0.67 -13.96,1 -11.97,1.67 -21.47,8.5 -28.42,20.43 -6.96,11.94 -10.48,26.94 -10.48,44.89 0,17.63 3.02,29.55 8.97,35.66 5.96,6.13 12.65,9.22 19.95,9.22zm197.45 60.85c0,-9.97 3.11,-18.49 9.22,-25.43 6.13,-6.96 14.54,-10.48 25.19,-10.48 10.63,0 19.4,3.69 26.18,10.98 6.79,7.27 10.23,16.77 10.23,28.41 0,5.98 -1.18,11.39 -3.5,16.21 -2.33,4.82 -6.31,10.4 -11.97,16.71 7.65,2.98 15.7,5.07 24.19,6.24 8.48,1.16 18.53,1.74 30.17,1.74 23.94,0 44.32,-1.95 61.08,-5.74 16.76,-3.8 30.5,-8.65 41.15,-14.46 10.63,-5.83 18.48,-12.17 23.43,-18.96 4.96,-6.79 7.48,-13.21 7.48,-19.2 0,-8.31 -4.9,-15.13 -14.7,-20.45 -9.82,-5.31 -26.25,-7.98 -49.13,-7.98l-95.75 0c-12.89,0 -24.37,-1.6 -34.16,-4.73 -9.77,-3.12 -17.89,-7.43 -24.17,-12.72 -6.3,-5.3 -11.06,-11.39 -14.21,-18.2 -3.16,-6.81 -4.74,-13.89 -4.74,-21.19 0,-7.32 1.37,-13.92 3.99,-19.7 2.62,-5.8 6.24,-10.98 10.73,-15.47 4.48,-4.48 9.58,-8.42 15.2,-11.72 5.62,-3.28 11.46,-6.14 17.45,-8.48 -12.63,-7.63 -21.61,-16.78 -26.92,-27.43 -5.32,-10.63 -7.98,-22.27 -7.98,-34.9 0,-24.94 9.06,-45.3 27.17,-61.1 18.13,-15.78 45.47,-23.69 82.04,-23.69 16.96,0 32.2,1.7 45.63,5 13.43,3.28 24.02,7.48 31.67,12.45 1.67,-5.98 4.09,-12.13 7.24,-18.44 3.16,-6.31 7.09,-12 11.72,-16.96 4.62,-4.95 10.08,-9.09 16.21,-12.22 6.11,-3.13 12.88,-4.73 20.2,-4.73 7.63,0 14.91,2.19 21.69,6.47 6.78,4.3 10.22,11.81 10.22,22.44 0,5.65 -1.33,10.56 -3.99,14.72 -2.67,4.15 -6.99,6.24 -12.97,6.24 -5.66,0 -10.26,-1.95 -13.71,-5.73 -3.46,-3.8 -5.23,-9.06 -5.23,-15.72 0,-3.99 0.52,-7.26 1.49,-9.72 0.96,-2.45 2,-4.57 2.98,-6.24 -3.99,0.35 -8.06,1.18 -12.22,2.5 -4.15,1.33 -8.17,3.77 -11.97,7.24 -3.78,3.46 -7.56,8.22 -11.21,14.2 -3.66,5.98 -6.98,13.81 -9.98,23.45 8.64,7.65 14.91,16.32 18.71,25.93 3.78,9.61 5.73,19.78 5.73,30.41 0,24.28 -9.35,44.26 -27.93,59.84 -18.6,15.6 -47.22,23.45 -85.78,23.45 -11.31,0 -21.9,-0.86 -31.67,-2.5 -9.79,-1.63 -19.04,-4.32 -27.68,-7.98 -4.67,1.67 -9.77,4.02 -15.22,6.98 -5.45,2.97 -8.23,6.81 -8.23,11.48 0,1.67 0.58,3.49 1.74,5.48 1.16,2 3.28,3.85 6.24,5.48 2.97,1.63 7.07,3.08 12.22,4.24 5.15,1.16 11.72,1.74 19.7,1.74l95.75 0c24.94,0 45.17,6.52 60.59,19.44 15.43,12.94 23.19,31.26 23.19,54.86 0,13.96 -2.98,26.76 -8.97,38.41 -5.98,11.64 -15,21.72 -26.94,30.17 -11.94,8.43 -26.84,15.03 -44.63,19.7 -17.8,4.65 -38.65,6.97 -62.59,6.97 -10.63,0 -22.89,-0.69 -36.66,-2 -13.76,-1.29 -26.87,-4.1 -39.14,-8.23 -12.27,-4.12 -22.73,-10.01 -31.17,-17.45 -8.45,-7.44 -12.72,-17.37 -12.72,-29.67zm93.25 -219.43c0,14.3 0.94,26.04 2.75,35.15 1.79,9.11 4.4,16.3 7.73,21.45 3.33,5.15 7.18,8.67 11.46,10.46 4.29,1.81 8.98,2.75 13.96,2.75 4.99,0 9.67,-0.94 13.96,-2.75 4.29,-1.79 8.19,-5.34 11.48,-10.46 3.28,-5.12 5.92,-12.34 7.73,-21.45 1.79,-9.11 2.73,-20.86 2.73,-35.15 0,-14.29 -0.94,-26.04 -2.73,-35.15 -1.81,-9.11 -4.44,-16.34 -7.73,-21.46 -3.3,-5.12 -7.19,-8.67 -11.48,-10.46 -4.29,-1.81 -8.97,-2.75 -13.96,-2.75 -4.98,0 -9.68,0.94 -13.96,2.75 -4.29,1.79 -8.14,5.31 -11.46,10.46 -3.33,5.15 -5.94,12.35 -7.73,21.46 -1.81,9.11 -2.75,20.86 -2.75,35.15zm260.37 -139.63c0,-5.65 1.17,-11.06 3.49,-16.21 2.32,-5.15 5.4,-9.65 9.24,-13.46 3.81,-3.83 8.34,-6.93 13.46,-9.24 5.12,-2.29 10.56,-3.49 16.21,-3.49 5.65,0 11.09,1.2 16.21,3.49 5.12,2.31 9.63,5.4 13.46,9.24 3.82,3.81 6.9,8.31 9.22,13.46 2.33,5.15 3.5,10.56 3.5,16.21 0,5.65 -1.18,11.06 -3.5,16.21 -2.32,5.15 -5.4,9.65 -9.22,13.46 -3.83,3.83 -8.34,6.93 -13.46,9.22 -5.12,2.31 -10.56,3.5 -16.21,3.5 -5.65,0 -11.09,-1.19 -16.21,-3.5 -5.12,-2.29 -9.65,-5.39 -13.46,-9.22 -3.83,-3.81 -6.91,-8.31 -9.24,-13.46 -2.32,-5.15 -3.49,-10.56 -3.49,-16.21zm-9.47 90.27c-4.32,0 -9.14,1.57 -14.47,4.73 -5.32,3.16 -10.63,7.4 -15.96,12.72 0,-6.31 1.78,-12.5 5.23,-18.45 3.47,-5.95 8.19,-11.42 13.96,-16.21 5.8,-4.79 12.68,-8.67 20.45,-11.46 7.79,-2.8 16.04,-4.24 24.69,-4.24 6.97,0 14,1.04 20.94,3 6.96,1.96 13.26,5.11 18.71,9.22 5.45,4.13 9.93,9.43 13.21,15.7 3.3,6.28 5,13.7 5,21.94l0 152.1c0,7.26 0.15,13.71 0.5,19.2 0.33,5.5 1.43,9.93 3.24,13.22 1.79,3.28 4.85,5.84 8.97,7.48 4.13,1.63 9.9,2.5 17.22,2.5l0 7.48 -139.63 0 0 -7.48c7.65,0 13.46,-0.83 17.45,-2.5 3.99,-1.67 6.89,-4.16 8.73,-7.48 1.82,-3.33 2.94,-7.76 3.24,-13.22 0.3,-5.45 0.5,-11.87 0.5,-19.2l0 -152.1c0,-6.31 -1.2,-10.74 -3.49,-13.21 -2.31,-2.47 -5.17,-3.74 -8.48,-3.74zm169 0c-4.32,0 -9.17,1.6 -14.45,4.73 -5.3,3.13 -10.65,7.4 -15.96,12.72 0,-6.31 1.74,-12.47 5.23,-18.45 3.49,-5.98 8.17,-11.42 13.96,-16.21 5.78,-4.79 12.66,-8.67 20.45,-11.46 7.78,-2.8 16.04,-4.24 24.68,-4.24 11.64,0 22.65,2.7 32.92,7.98 10.27,5.29 17.45,13.3 21.44,23.94 8.31,-12.63 18.46,-21.94 30.43,-27.93 11.97,-5.98 25.43,-8.97 40.4,-8.97 13.62,0 26.26,2.33 37.9,6.98 11.62,4.66 21.72,10.83 30.16,18.45 8.45,7.62 15.08,16.4 19.71,26.19 4.62,9.77 6.97,20.09 6.97,30.66l0 124.68c0,6.25 1.27,11.17 3.74,14.47 2.46,3.28 5.57,4.98 9.24,4.98 3.64,0 8.17,-1.6 13.46,-4.73 5.28,-3.13 10.63,-7.4 15.96,-12.72 0,6.31 -1.78,12.5 -5.25,18.46 -3.45,5.95 -8.06,11.39 -13.71,16.21 -5.66,4.82 -12.3,8.64 -19.95,11.46 -7.65,2.83 -15.79,4.24 -24.43,4.24 -7.32,0 -14.59,-1.2 -21.7,-3.5 -7.12,-2.3 -13.49,-5.76 -18.94,-10.21 -5.45,-4.46 -9.93,-10.01 -13.21,-16.46 -3.3,-6.46 -5,-13.89 -5,-22.2l0 -124.68c0,-11.29 -1.19,-21.05 -3.48,-29.17 -2.3,-8.11 -5.36,-14.91 -8.98,-20.2 -3.63,-5.28 -7.84,-9.25 -12.46,-11.72 -4.63,-2.46 -9.31,-3.74 -13.96,-3.74 -5.32,0 -10.22,1.24 -14.72,3.74 -4.49,2.5 -8.56,5.73 -12.22,9.72 -3.66,3.99 -6.93,8.34 -9.72,12.97 -2.8,4.62 -5.07,9.3 -6.74,13.96l0 149.1c0,7.26 0.2,13.74 0.5,19.2 0.3,5.46 1.41,9.89 3.24,13.22 1.83,3.31 4.85,5.84 8.98,7.48 4.11,1.63 9.89,2.5 17.2,2.5l0 7.48 -139.63 0 0 -7.48c7.65,0 13.48,-0.83 17.46,-2.5 3.99,-1.67 6.93,-4.19 8.72,-7.48 1.8,-3.3 2.94,-7.76 3.25,-13.22 0.3,-5.45 0.49,-11.87 0.49,-19.2l0 -152.1c0,-6.31 -1.16,-10.71 -3.49,-13.21 -2.32,-2.5 -5.15,-3.74 -8.48,-3.74zm465.79 226.4c-22.27,0 -42.17,-3.34 -59.59,-9.97 -17.42,-6.61 -32.17,-15.96 -44.14,-27.93 -11.97,-11.97 -21.06,-26.3 -27.17,-42.88 -6.13,-16.6 -9.22,-34.92 -9.22,-54.86 0,-19.95 3.02,-37.84 8.97,-53.61 5.95,-15.75 14.91,-29.29 26.69,-40.4 11.76,-11.1 26.26,-19.7 43.38,-25.68 17.12,-5.98 36.66,-8.97 58.6,-8.97 9.63,0 20.61,1.24 32.91,3.74 12.3,2.5 23.97,6.59 34.92,12.22 10.93,5.62 20.18,13.13 27.67,22.43 7.48,9.31 11.22,20.78 11.22,34.41 0,11.31 -2.78,21.06 -8.23,29.18 -5.45,8.11 -12.7,14.87 -21.69,20.19 -8.97,5.32 -19.12,9.49 -30.43,12.47 -11.3,3 -22.89,5.28 -34.65,6.74 -11.78,1.46 -23.39,2.43 -34.67,2.73 -11.28,0.31 -21.28,0.5 -29.92,0.5 0.33,21.94 1.44,39.85 3.24,53.61 1.81,13.78 4.78,24.47 8.73,31.92 3.96,7.46 9.35,12.58 15.96,15.22 6.61,2.62 14.63,3.99 23.94,3.99 17.3,0 35.19,-3.36 53.61,-9.97 18.42,-6.63 34.33,-16.63 47.62,-29.92 0,6.31 -2.11,12.74 -6.24,19.19 -4.11,6.46 -10.33,12.43 -18.44,17.7 -8.12,5.3 -18.3,9.65 -30.42,12.98 -12.14,3.31 -26.36,4.98 -42.65,4.98zm-55.35 -132.16c9.97,-0.66 19.65,-1.78 28.93,-3.24 9.26,-1.46 17.56,-4.43 24.67,-8.73 7.11,-4.29 12.91,-10.49 17.22,-18.44 4.29,-7.95 6.47,-18.63 6.47,-31.92 0,-6.99 -0.69,-14 -1.99,-20.95 -1.29,-6.94 -3.44,-13.17 -6.24,-18.46 -2.8,-5.28 -6.39,-9.63 -10.71,-12.96 -4.32,-3.33 -9.47,-5 -15.46,-5 -5.98,0 -11.59,1.95 -16.71,5.75 -5.12,3.79 -9.64,10.38 -13.46,19.7 -3.83,9.3 -6.94,21.65 -9.23,36.89 -2.3,15.27 -3.49,34.42 -3.49,57.35zm1037.22 117.2c7.63,0 13.46,-0.83 17.45,-2.5 3.99,-1.67 6.89,-4.16 8.72,-7.48 1.84,-3.33 2.92,-7.73 3.25,-13.22 0.33,-5.48 0.5,-11.87 0.5,-19.2l0 -249.35c0,-7.65 -0.17,-14.13 -0.5,-19.44 -0.33,-5.32 -1.41,-9.64 -3.25,-12.97 -1.82,-3.31 -4.73,-5.81 -8.72,-7.48 -3.99,-1.67 -9.82,-2.5 -17.45,-2.5l0 -7.48 142.12 0 0 7.48c-7.3,0 -13.06,0.83 -17.2,2.5 -4.16,1.67 -7.15,4.16 -8.98,7.48 -1.82,3.33 -2.91,7.65 -3.24,12.97 -0.33,5.31 -0.5,11.8 -0.5,19.44l0 249.35c0,7.32 0.17,13.71 0.5,19.2 0.33,5.5 1.41,9.89 3.24,13.22 1.84,3.31 4.82,5.81 8.98,7.48 4.15,1.67 9.9,2.5 17.2,2.5l0 7.48 -142.12 0 0 -7.48zm193.98 -211.44c-4.32,0 -9.14,1.57 -14.45,4.73 -5.33,3.16 -10.65,7.4 -15.96,12.72 0,-6.31 1.74,-12.47 5.23,-18.45 3.49,-5.98 8.14,-11.39 13.96,-16.21 5.81,-4.82 12.63,-8.64 20.45,-11.46 7.81,-2.83 16.04,-4.24 24.68,-4.24 11.64,0 22.62,2.67 32.92,7.98 10.3,5.32 17.45,13.3 21.44,23.94 8.31,-12.63 18.45,-21.94 30.42,-27.93 11.97,-5.98 25.43,-8.97 40.4,-8.97 13.62,0 26.26,2.33 37.9,6.98 11.62,4.66 21.69,10.8 30.16,18.45 8.48,7.65 15.05,16.37 19.71,26.19 4.65,9.8 6.97,20.03 6.97,30.66l0 124.68c0,6.31 1.24,11.14 3.74,14.47 2.5,3.31 5.57,4.98 9.24,4.98 3.64,0 8.13,-1.57 13.46,-4.73 5.31,-3.16 10.63,-7.4 15.96,-12.72 0,6.31 -1.74,12.47 -5.24,18.46 -3.49,5.98 -8.06,11.39 -13.71,16.21 -5.66,4.82 -12.3,8.64 -19.95,11.46 -7.65,2.83 -15.79,4.24 -24.43,4.24 -7.32,0 -14.56,-1.17 -21.7,-3.5 -7.15,-2.33 -13.46,-5.73 -18.94,-10.21 -5.48,-4.49 -9.89,-9.98 -13.21,-16.46 -3.33,-6.49 -5,-13.89 -5,-22.2l0 -124.68c0,-11.29 -1.16,-21.02 -3.48,-29.17 -2.33,-8.14 -5.33,-14.87 -8.98,-20.2 -3.66,-5.31 -7.81,-9.22 -12.46,-11.72 -4.67,-2.5 -9.31,-3.74 -13.96,-3.74 -5.32,0 -10.22,1.24 -14.72,3.74 -4.49,2.5 -8.56,5.73 -12.22,9.72 -3.66,3.99 -6.89,8.31 -9.72,12.97 -2.83,4.65 -5.07,9.3 -6.74,13.96l0 149.1c0,7.32 0.17,13.71 0.5,19.2 0.33,5.5 1.41,9.89 3.24,13.22 1.83,3.31 4.82,5.81 8.98,7.48 4.15,1.67 9.89,2.5 17.2,2.5l0 7.48 -139.63 0 0 -7.48c7.65,0 13.48,-0.83 17.47,-2.5 3.99,-1.67 6.89,-4.16 8.72,-7.48 1.84,-3.33 2.91,-7.73 3.25,-13.22 0.33,-5.48 0.48,-11.87 0.48,-19.2l0 -152.1c0,-6.31 -1.16,-10.71 -3.48,-13.21 -2.33,-2.5 -5.15,-3.74 -8.48,-3.74zm409.45 147.61c0,9.64 -2.83,19.62 -8.48,29.92 -0.67,1.32 -1.33,2.73 -1.99,4.24 -0.68,1.49 -1.01,3.24 -1.01,5.23 0,4.32 1.51,7.98 4.49,10.96 3,3 6.82,5.41 11.47,7.24 4.67,1.82 9.64,3.16 14.97,3.99 5.31,0.83 10.3,1.24 14.95,1.24 11.64,0 21.61,-2.5 29.92,-7.48 8.31,-5 12.47,-13.79 12.47,-26.44 0,-5.65 -0.91,-10.63 -2.75,-14.95 -1.82,-4.32 -4.9,-8.48 -9.22,-12.47 -4.32,-3.99 -9.8,-7.98 -16.46,-11.97 -6.65,-3.99 -14.8,-8.48 -24.43,-13.46 -17.63,-8.98 -32.34,-17.3 -44.14,-24.94 -11.81,-7.65 -21.2,-14.95 -28.18,-21.94 -6.99,-6.97 -11.97,-13.87 -14.97,-20.69 -2.98,-6.82 -4.48,-14.06 -4.48,-21.71 0,-10.63 2.48,-20.35 7.48,-29.17 4.98,-8.81 12.13,-16.46 21.44,-22.93 9.31,-6.49 20.53,-11.48 33.66,-14.97 13.13,-3.49 27.85,-5.23 44.14,-5.23 14.62,0 28.68,1.49 42.14,4.48 13.46,3 25.27,7.49 35.4,13.48 10.15,5.98 18.2,13.38 24.19,22.19 5.98,8.81 8.98,18.87 8.98,30.16 0,11.97 -3.33,21.71 -9.97,29.19 -6.66,7.48 -15.47,11.22 -26.44,11.22 -10.65,0 -19.62,-3.31 -26.94,-9.98 -7.3,-6.64 -10.96,-15.78 -10.96,-27.43 0,-6.99 1.08,-13.13 3.23,-18.45 2.17,-5.31 4.07,-9.3 5.74,-11.97 2.67,-5.31 3.99,-8.64 3.99,-9.98 0,-3.31 -3.31,-7.48 -9.97,-12.47 -6.65,-4.98 -15.13,-7.48 -25.43,-7.48 -10.63,0 -19.7,3.25 -27.17,9.72 -7.49,6.49 -11.23,14.72 -11.23,24.69 0,6.64 1.67,12.72 5,18.2 3.31,5.48 7.3,10.3 11.97,14.46 4.65,4.15 9.55,7.73 14.7,10.71 5.15,3 9.57,5.48 13.22,7.48 19.95,10.32 36.24,19.71 48.87,28.18 12.64,8.48 22.62,16.21 29.92,23.2 7.32,6.97 12.39,13.63 15.22,19.94 2.83,6.31 4.24,12.8 4.24,19.44 0,10.96 -3.17,21.11 -9.49,30.43 -6.31,9.3 -14.95,17.28 -25.93,23.94 -10.96,6.65 -23.76,11.8 -38.39,15.46 -14.64,3.66 -30.27,5.48 -46.89,5.48 -12.96,0 -26.18,-1.32 -39.64,-3.99 -13.46,-2.65 -25.78,-6.89 -36.91,-12.71 -11.13,-5.83 -20.18,-13.48 -27.17,-22.94 -6.97,-9.47 -10.48,-21.03 -10.48,-34.67 0,-13.29 3.5,-24.02 10.48,-32.15 6.99,-8.15 16.79,-12.22 29.42,-12.22 12.64,0 22.04,3.82 28.18,11.47 6.16,7.65 9.24,17.12 9.24,28.43zm192 -130.17c0,-6.31 1.65,-12.47 4.98,-18.45 3.33,-5.98 7.72,-11.39 13.21,-16.21 5.5,-4.82 11.73,-8.64 18.7,-11.46 6.99,-2.83 14.14,-4.24 21.44,-4.24 6.99,0 13.48,1.33 19.46,3.99 5.98,2.67 11.3,5.98 15.96,9.98 4.65,3.99 8.64,8.31 11.97,12.97 3.31,4.65 5.64,8.97 6.98,12.96 0.33,0.33 0.5,0.68 0.5,1.01 0,0.33 0.15,0.66 0.5,0.99 7.3,-14.95 17.36,-26.51 30.16,-34.65 12.8,-8.15 27.69,-12.22 44.64,-12.22 13.63,0 26.59,2.83 38.91,8.47 12.3,5.65 23.01,14.13 32.15,25.44 9.14,11.29 16.38,25.18 21.71,41.64 5.31,16.46 7.98,35.65 7.98,57.6 0,21.61 -2.67,40.56 -7.98,56.84 -5.33,16.3 -12.72,29.92 -22.2,40.9 -9.48,10.96 -20.78,19.29 -33.91,24.93 -13.13,5.65 -27.52,8.48 -43.15,8.48 -9.98,0 -18.61,-0.99 -25.93,-2.98 -7.3,-1.99 -13.46,-4.32 -18.44,-6.99 -2.67,-1.32 -5.24,-2.83 -7.74,-4.49 -2.48,-1.65 -5.06,-3.49 -7.72,-5.48l0 62.34c0,7.65 0.17,14.14 0.5,19.44 0.33,5.33 1.41,9.65 3.24,12.97 1.84,3.31 4.82,5.81 8.98,7.48 4.15,1.67 9.89,2.5 17.2,2.5l0 7.48 -139.63 0 0 -7.48c7.65,0 13.48,-0.83 17.46,-2.5 3.99,-1.66 6.89,-4.16 8.72,-7.48 1.84,-3.33 2.91,-7.65 3.25,-12.97 0.33,-5.31 0.49,-11.8 0.49,-19.44l0 -249.35c0,-6.31 -1.24,-11.14 -3.74,-14.46 -2.5,-3.31 -5.56,-4.98 -9.22,-4.98 -3.66,0 -8.15,1.57 -13.46,4.73 -5.32,3.16 -10.65,7.4 -15.96,12.72zm122.17 172.54c5.32,4.99 11.13,9.64 17.46,13.96 6.31,4.33 13.79,6.49 22.43,6.49 5.65,0 11.06,-1.49 16.21,-4.49 5.15,-2.98 9.65,-8.64 13.46,-16.95 3.83,-8.31 6.91,-19.87 9.24,-34.67 2.33,-14.8 3.49,-34.16 3.49,-58.1 0,-24.27 -1.16,-43.96 -3.49,-59.09 -2.32,-15.13 -5.32,-26.92 -8.98,-35.4 -3.66,-8.48 -7.81,-14.22 -12.46,-17.22 -4.67,-2.98 -9.48,-4.48 -14.46,-4.48 -5.32,0 -10.15,1.24 -14.46,3.74 -4.32,2.5 -8.23,5.65 -11.72,9.47 -3.48,3.83 -6.64,8.06 -9.47,12.72 -2.83,4.65 -5.25,9.3 -7.24,13.96l0 170.04zm244.87 -280.26c0,-5.65 1.16,-11.06 3.48,-16.21 2.33,-5.15 5.41,-9.65 9.24,-13.46 3.82,-3.83 8.31,-6.9 13.46,-9.24 5.15,-2.32 10.56,-3.49 16.21,-3.49 5.66,0 11.06,1.17 16.21,3.49 5.15,2.34 9.63,5.4 13.46,9.24 3.81,3.81 6.89,8.31 9.22,13.46 2.33,5.15 3.5,10.56 3.5,16.21 0,5.65 -1.18,11.06 -3.5,16.21 -2.32,5.15 -5.4,9.65 -9.22,13.46 -3.83,3.83 -8.31,6.9 -13.46,9.22 -5.15,2.34 -10.56,3.5 -16.21,3.5 -5.65,0 -11.06,-1.16 -16.21,-3.5 -5.15,-2.32 -9.64,-5.39 -13.46,-9.22 -3.83,-3.81 -6.91,-8.31 -9.24,-13.46 -2.32,-5.15 -3.48,-10.56 -3.48,-16.21zm-9.47 90.27c-4.32,0 -9.14,1.57 -14.47,4.73 -5.32,3.16 -10.63,7.4 -15.96,12.72 0,-6.31 1.74,-12.47 5.23,-18.45 3.5,-5.98 8.15,-11.39 13.96,-16.21 5.83,-4.82 12.65,-8.64 20.45,-11.46 7.82,-2.83 16.04,-4.24 24.69,-4.24 6.98,0 13.96,1 20.94,3 6.99,2 13.23,5.07 18.71,9.22 5.48,4.16 9.89,9.39 13.21,15.7 3.33,6.31 5,13.63 5,21.94l0 152.1c0,7.32 0.16,13.71 0.5,19.2 0.33,5.5 1.4,9.89 3.24,13.22 1.82,3.31 4.82,5.81 8.97,7.48 4.17,1.67 9.9,2.5 17.22,2.5l0 7.48 -139.63 0 0 -7.48c7.65,0 13.46,-0.83 17.45,-2.5 3.99,-1.67 6.9,-4.16 8.73,-7.48 1.82,-3.33 2.91,-7.73 3.24,-13.22 0.33,-5.48 0.5,-11.87 0.5,-19.2l0 -152.1c0,-6.31 -1.16,-10.71 -3.49,-13.21 -2.34,-2.5 -5.17,-3.74 -8.48,-3.74zm167.06 0c-4.32,0 -9.14,1.57 -14.45,4.73 -5.32,3.16 -10.65,7.4 -15.96,12.72 0,-6.31 1.74,-12.47 5.23,-18.45 3.49,-5.98 8.14,-11.39 13.96,-16.21 5.81,-4.82 12.63,-8.64 20.45,-11.46 7.81,-2.83 16.04,-4.24 24.68,-4.24 11.97,0 23.36,3 34.16,8.98 10.81,5.98 18.03,14.8 21.69,26.42 8.65,-10.96 18.96,-19.52 30.93,-25.68 11.97,-6.14 24.6,-9.22 37.9,-9.22 8.31,0 16.04,1.24 23.19,3.74 7.15,2.5 13.38,5.91 18.7,10.22 5.31,4.32 9.47,9.39 12.47,15.2 2.98,5.83 4.48,12.06 4.48,18.71 0,10.96 -3.82,20.12 -11.46,27.42 -7.65,7.32 -17.3,10.98 -28.92,10.98 -6.66,0 -12.22,-1.26 -16.71,-3.74 -4.49,-2.5 -8.15,-5.66 -10.98,-9.49 -2.83,-3.82 -4.82,-8.23 -5.98,-13.21 -1.16,-5 -1.74,-9.98 -1.74,-14.97 0,-6.65 0.83,-13.04 2.5,-19.2 1.67,-6.14 3.48,-10.55 5.48,-13.21 -4.65,0 -9.72,1.32 -15.2,3.99 -5.48,2.65 -10.98,6.14 -16.46,10.46 -5.48,4.33 -10.56,9.06 -15.2,14.21 -4.67,5.15 -8.31,10.22 -10.98,15.22l0 145.11c0,7.32 0.17,13.71 0.5,19.2 0.33,5.5 1.41,9.89 3.24,13.22 1.84,3.31 4.82,5.81 8.98,7.48 4.15,1.67 9.89,2.5 17.2,2.5l0 7.48 -139.63 0 0 -7.48c7.65,0 13.48,-0.83 17.46,-2.5 3.99,-1.67 6.89,-4.16 8.72,-7.48 1.84,-3.33 2.91,-7.73 3.25,-13.22 0.33,-5.48 0.49,-11.87 0.49,-19.2l0 -152.1c0,-6.31 -1.17,-10.71 -3.49,-13.21 -2.32,-2.5 -5.15,-3.74 -8.48,-3.74zm383.5 226.4c-22.27,0 -42.14,-3.31 -59.59,-9.97 -17.45,-6.65 -32.17,-15.96 -44.14,-27.93 -11.97,-11.97 -21.03,-26.26 -27.17,-42.88 -6.15,-16.63 -9.22,-34.92 -9.22,-54.86 0,-19.95 2.98,-37.81 8.97,-53.61 5.98,-15.78 14.87,-29.26 26.69,-40.4 11.8,-11.13 26.26,-19.7 43.38,-25.68 17.12,-5.98 36.66,-8.97 58.6,-8.97 9.63,0 20.61,1.24 32.91,3.74 12.3,2.5 23.94,6.56 34.92,12.22 10.96,5.65 20.18,13.13 27.67,22.43 7.48,9.31 11.22,20.78 11.22,34.41 0,11.31 -2.75,21.03 -8.23,29.18 -5.48,8.14 -12.7,14.87 -21.69,20.19 -8.97,5.32 -19.11,9.49 -30.43,12.47 -11.29,3 -22.85,5.24 -34.65,6.74 -11.81,1.49 -23.35,2.41 -34.67,2.73 -11.31,0.35 -21.28,0.5 -29.92,0.5 0.33,21.94 1.41,39.81 3.24,53.61 1.84,13.81 4.74,24.44 8.73,31.92 3.99,7.49 9.31,12.55 15.96,15.22 6.64,2.65 14.62,3.99 23.94,3.99 17.29,0 35.15,-3.33 53.61,-9.97 18.46,-6.66 34.33,-16.63 47.62,-29.92 0,6.31 -2.07,12.7 -6.24,19.19 -4.15,6.49 -10.3,12.39 -18.44,17.7 -8.15,5.33 -18.3,9.65 -30.43,12.98 -12.14,3.31 -26.36,4.98 -42.65,4.98zm-55.35 -132.16c9.98,-0.66 19.62,-1.74 28.93,-3.24 9.3,-1.49 17.53,-4.4 24.67,-8.73 7.15,-4.32 12.88,-10.46 17.22,-18.44 4.32,-7.98 6.47,-18.63 6.47,-31.92 0,-6.99 -0.66,-13.96 -2,-20.95 -1.32,-6.98 -3.41,-13.13 -6.24,-18.46 -2.83,-5.31 -6.39,-9.63 -10.71,-12.96 -4.32,-3.33 -9.47,-5 -15.45,-5 -5.98,0 -11.56,1.92 -16.71,5.75 -5.15,3.82 -9.65,10.38 -13.46,19.7 -3.83,9.3 -6.91,21.61 -9.24,36.89 -2.33,15.3 -3.49,34.42 -3.49,57.35zm1105.51 117.2c7.63,0 13.46,-0.83 17.45,-2.5 3.99,-1.67 7.16,-4.44 8.72,-7.48 1.56,-3.06 3.19,-8.01 3.25,-13.22 0.05,-5.22 0.5,-11.87 0.5,-19.2l0 -249.35c0,-7.65 -0.45,-14.4 -0.5,-19.44 -0.06,-5.04 -1.7,-9.91 -3.25,-12.97 -1.56,-3.03 -4.73,-5.81 -8.72,-7.48 -3.99,-1.67 -9.82,-2.5 -17.45,-2.5l0 -7.48 142.12 0 0 7.48c-7.31,0 -13.32,1.11 -17.2,2.5 -3.88,1.4 -7.15,4.16 -8.98,7.48 -1.82,3.33 -3.17,7.93 -3.24,12.97 -0.05,5.04 -0.5,12.35 -0.5,19.44l0 249.35c0,6.77 0.45,13.98 0.5,19.2 0.06,5.21 1.41,9.89 3.24,13.22 1.84,3.31 5.11,6.08 8.98,7.48 3.88,1.38 9.89,2.5 17.2,2.5l0 7.48 -142.12 0 0 -7.48zm193.98 -211.44c-4.32,0 -9.41,1.85 -14.45,4.73 -5.04,2.89 -10.65,7.4 -15.96,12.72 0,-6.31 1.74,-12.47 5.23,-18.45 3.49,-5.98 8.42,-11.66 13.96,-16.21 5.54,-4.54 12.91,-8.91 20.45,-11.46 7.54,-2.54 16.04,-4.24 24.67,-4.24 11.64,0 22.9,2.94 32.93,7.98 10.04,5.04 17.45,13.3 21.44,23.94 8.31,-12.63 18.46,-21.94 30.43,-27.93 11.97,-5.98 25.43,-8.97 40.4,-8.97 13.62,0 26.26,2.33 37.9,6.98 11.62,4.66 21.96,11.09 30.16,18.45 8.2,7.38 15.33,16.63 19.71,26.19 4.38,9.52 6.97,20.57 6.97,30.66l0 124.68c0,5.77 1.51,11.42 3.74,14.47 2.21,3.05 5.57,4.98 9.23,4.98 3.65,0 8.42,-1.84 13.46,-4.73 5.04,-2.87 10.63,-7.4 15.96,-12.72 0,6.31 -2.03,12.74 -5.25,18.46 -3.22,5.7 -8.06,11.39 -13.71,16.21 -5.65,4.82 -12.3,8.64 -19.94,11.46 -7.65,2.83 -15.79,4.24 -24.43,4.24 -7.32,0 -14.83,-1.44 -21.71,-3.5 -6.86,-2.06 -13.74,-6 -18.94,-10.21 -5.21,-4.21 -10.16,-10.26 -13.21,-16.46 -3.05,-6.22 -5,-13.89 -5,-22.2l0 -124.68c0,-11.29 -1.43,-21.3 -3.48,-29.17 -2.04,-7.87 -5.59,-15.16 -8.98,-20.2 -3.38,-5.04 -8.07,-9.5 -12.46,-11.72 -4.38,-2.23 -9.31,-3.74 -13.96,-3.74 -5.32,0 -10.22,1.24 -14.72,3.74 -4.49,2.5 -8.56,5.73 -12.22,9.72 -3.66,3.99 -7.16,8.59 -9.72,12.97 -2.55,4.38 -5.07,9.3 -6.74,13.96l0 149.1c0,6.77 0.46,13.98 0.5,19.2 0.06,5.21 1.41,9.89 3.23,13.22 1.84,3.31 5.11,6.08 8.99,7.48 3.88,1.38 9.89,2.5 17.2,2.5l0 7.48 -139.63 0 0 -7.48c7.65,0 13.48,-0.83 17.46,-2.5 3.99,-1.67 7.17,-4.44 8.72,-7.48 1.56,-3.06 3.19,-8 3.25,-13.22 0.06,-5.2 0.49,-11.87 0.49,-19.2l0 -152.1c0,-6.31 -1.16,-10.71 -3.49,-13.21 -2.32,-2.5 -5.15,-3.74 -8.48,-3.74zm337.67 0c-4.32,0 -9.41,1.85 -14.45,4.73 -5.04,2.89 -10.65,7.4 -15.96,12.72 0,-6.31 1.74,-12.47 5.23,-18.45 3.49,-5.98 8.42,-11.66 13.96,-16.21 5.54,-4.54 12.91,-8.91 20.45,-11.46 7.54,-2.54 16.04,-4.24 24.68,-4.24 11.64,0 22.9,2.94 32.92,7.98 10.04,5.04 17.45,13.3 21.44,23.94 8.31,-12.63 18.45,-21.94 30.42,-27.93 11.97,-5.98 25.43,-8.97 40.4,-8.97 13.62,0 26.26,2.33 37.9,6.98 11.62,4.66 21.96,11.09 30.16,18.45 8.2,7.38 15.33,16.63 19.71,26.19 4.38,9.52 6.97,20.57 6.97,30.66l0 124.68c0,5.77 1.51,11.42 3.74,14.47 2.21,3.05 5.57,4.98 9.24,4.98 3.64,0 8.42,-1.84 13.46,-4.73 5.04,-2.87 10.63,-7.4 15.96,-12.72 0,6.31 -2.03,12.74 -5.24,18.46 -3.22,5.7 -8.06,11.39 -13.71,16.21 -5.66,4.82 -12.3,8.64 -19.95,11.46 -7.65,2.83 -15.79,4.24 -24.43,4.24 -7.32,0 -14.83,-1.44 -21.7,-3.5 -6.87,-2.06 -13.74,-6 -18.94,-10.21 -5.21,-4.21 -10.16,-10.26 -13.21,-16.46 -3.05,-6.22 -5,-13.89 -5,-22.2l0 -124.68c0,-11.29 -1.43,-21.3 -3.48,-29.17 -2.04,-7.87 -5.59,-15.16 -8.98,-20.2 -3.38,-5.04 -8.07,-9.5 -12.46,-11.72 -4.38,-2.23 -9.31,-3.74 -13.96,-3.74 -5.32,0 -10.22,1.24 -14.72,3.74 -4.49,2.5 -8.56,5.73 -12.22,9.72 -3.66,3.99 -7.16,8.59 -9.72,12.97 -2.55,4.38 -5.07,9.3 -6.74,13.96l0 149.1c0,6.77 0.46,13.98 0.5,19.2 0.06,5.21 1.41,9.89 3.24,13.22 1.83,3.31 5.1,6.08 8.98,7.48 3.88,1.38 9.89,2.5 17.2,2.5l0 7.48 -139.63 0 0 -7.48c7.65,0 13.48,-0.83 17.47,-2.5 3.99,-1.67 7.16,-4.44 8.72,-7.48 1.56,-3.06 3.19,-8 3.25,-13.22 0.06,-5.2 0.48,-11.87 0.48,-19.2l0 -152.1c0,-6.31 -1.16,-10.71 -3.48,-13.21 -2.33,-2.5 -5.15,-3.74 -8.48,-3.74zm460.26 -37.9c20.62,0 39.43,3.27 55.6,8.97 16.18,5.72 30.69,15 41.89,26.19 11.2,11.2 20.56,25.63 26.43,41.64 5.87,16.02 9.24,34.74 9.24,55.35 0,20.63 -3.36,39.35 -9.24,55.37 -5.87,16.01 -15.23,30.44 -26.43,41.64 -11.2,11.18 -25.71,20.46 -41.89,26.18 -16.18,5.7 -34.98,8.97 -55.6,8.97 -20.61,0 -39.14,-2.98 -55.6,-8.97 -16.46,-5.98 -30.43,-14.72 -41.89,-26.18 -11.47,-11.47 -20.56,-25.62 -26.44,-41.64 -5.87,-16 -9.22,-34.74 -9.22,-55.37 0,-20.61 3.34,-39.35 9.22,-55.35 5.87,-16.02 14.97,-30.17 26.44,-41.64 11.46,-11.47 25.43,-20.2 41.89,-26.19 16.46,-5.98 35,-8.97 55.6,-8.97zm0 251.83c5.65,0 11.31,-1.65 16.96,-4.98 5.65,-3.33 11.07,-9.76 15.45,-18.46 4.37,-8.7 8.75,-21.47 11.47,-36.64 2.72,-15.2 4.49,-35.33 4.49,-59.61 0,-24.27 -1.78,-44.39 -4.49,-59.59 -2.72,-15.17 -7.1,-27.94 -11.47,-36.65 -4.38,-8.7 -9.8,-15.13 -15.45,-18.45 -5.66,-3.33 -11.31,-5 -16.96,-5 -5.65,0 -11.3,1.67 -16.95,5 -5.65,3.33 -10.81,9.47 -15.46,18.45 -4.66,8.97 -8.48,21.19 -11.48,36.65 -2.98,15.47 -4.48,35.32 -4.48,59.59 0,24.28 1.49,44.14 4.48,59.61 3,15.45 6.82,27.67 11.48,36.64 4.65,8.98 9.8,15.13 15.46,18.46 5.65,3.33 11.3,4.98 16.95,4.98zm198.49 -193.5c-5.65,-12.63 -12.8,-18.94 -21.44,-18.94 -3.99,0 -8.51,1.68 -12.72,4.24 -4.21,2.54 -9.04,6.57 -13.71,11.22 0,-6.98 2.12,-13.81 5.5,-19.7 3.38,-5.86 8.64,-11.47 14.95,-15.96 6.31,-4.49 13.56,-7.98 21.69,-10.48 8.15,-2.48 16.87,-3.74 26.18,-3.74 14.3,0 26.7,3.77 36.41,10.48 9.69,6.7 18.28,18.46 24.93,34.41l46.38 113.7 57.35 -131.65c1.33,-3 2,-5.65 2,-7.98 0,-1.99 -1.26,-3.94 -2.98,-4.99 -1.71,-1.06 -4.7,-2.52 -7.24,-2.74 -2.56,-0.22 -6.05,-1 -9.22,-1 -3.16,0 -6.87,-0.25 -8.97,-0.25l-3.99 0 0 -7.48 79.79 0 0 7.48c-11.31,0 -19.4,1.37 -23.45,3.25 -4.04,1.89 -7.98,6.72 -10.96,13.71l-98.75 227.41 -12.46 0 -89.28 -200.99zm227.95 136.15c0,-16.95 5.09,-30.61 14.46,-40.15 9.36,-9.53 21.8,-17.4 35.66,-21.94 13.85,-4.56 29.18,-7.81 45.14,-8.97 15.96,-1.16 30.25,-1.74 42.88,-1.74 3.99,0 7.73,0 11.22,0 3.5,0 6.91,-0.17 10.22,-0.5l0 -14.47c0,-19.62 -1.51,-35.94 -3.74,-48.13 -2.21,-12.19 -6.06,-22.35 -10.71,-29.67 -4.67,-7.3 -10.4,-12.38 -17.21,-15.2 -6.82,-2.83 -14.54,-4.24 -23.19,-4.24 -6.99,0 -12.97,0.83 -17.95,2.5 3.99,6.98 6.72,13.96 8.23,20.94 1.49,6.99 2.24,12.98 2.24,17.95 0,12.98 -3.66,23.03 -10.98,30.17 -7.32,7.15 -16.29,10.73 -26.93,10.73 -10.98,0 -19.87,-3.41 -26.69,-10.22 -6.81,-6.82 -10.22,-15.55 -10.22,-26.19 0,-6.99 1.74,-13.79 5.23,-20.45 3.5,-6.65 9.17,-12.83 16.21,-17.7 7.04,-4.89 16.71,-9.31 28.18,-12.47 11.46,-3.16 25.19,-4.73 41.15,-4.73 20.28,0 38.5,2.94 53.86,7.98 15.33,5.04 29.1,12.99 39.64,22.19 10.52,9.2 18.94,20.69 24.43,33.66 5.5,12.96 8.23,27.8 8.23,42.88l0 99.74c0,5.76 1.44,11.57 3.5,14.97 2.06,3.38 5.48,5.48 9.47,5.48 3.66,0 8.06,-1.59 13.21,-4.74 5.15,-3.16 10.4,-7.4 15.71,-12.7 0,6.31 -1.93,12.74 -4.98,18.44 -3.05,5.72 -8.11,11.57 -13.46,15.96 -5.39,4.38 -12.06,8.4 -19.21,11.23 -7.15,2.83 -14.55,4.24 -22.19,4.24 -12.96,0 -24.54,-4.12 -33.91,-11.48 -9.36,-7.37 -16.44,-17.28 -20.43,-28.92 -7.32,13.96 -17.22,25.02 -29.69,33.16 -12.46,8.15 -26.67,12.22 -42.63,12.22 -31.26,0 -54.87,-6.39 -70.82,-19.19 -15.96,-12.8 -23.94,-29.67 -23.94,-50.62zm113.7 51.36c5.66,0 11.15,-1.6 15.71,-3.99 4.54,-2.39 9.43,-6.25 12.97,-9.97 3.55,-3.71 7.15,-8.22 9.98,-12.71 2.83,-4.49 5.23,-8.73 7.22,-12.72l0 -72.31c-7.65,0 -15.24,0.44 -21.94,0.5 -6.7,0.05 -11.64,0.67 -13.96,1 -11.97,1.67 -21.71,8.75 -28.41,20.43 -6.71,11.7 -10.48,26.94 -10.48,44.89 0,17.63 3.26,29.78 8.97,35.66 5.72,5.87 12.64,9.22 19.94,9.22zm239.39 -340.61c6.97,0 14.23,1.29 20.94,3 6.71,1.73 13.21,5.07 18.71,9.22 5.48,4.16 9.88,9.39 13.21,15.71 3.33,6.31 4.99,14.18 4.99,21.94l0 52.37 74.8 0 0 12.47 -74.8 0 0 172.04c0,3.79 0.44,10.01 0.49,16.21 0.06,6.2 1.67,12.72 3.99,18.7 2.33,5.98 6.08,11.14 11.23,15.46 5.15,4.32 12.38,6.49 21.69,6.49 11.97,0 24.28,-3.94 36.15,-10.98 11.85,-7.04 24.02,-16.78 35.66,-28.41 0,6.31 -1.78,12.97 -4.49,19.19 -2.72,6.2 -8.26,12.66 -14.95,17.7 -6.72,5.04 -16.4,9.93 -27.44,12.98 -11.01,3.05 -25.26,4.98 -41.89,4.98 -29.92,0 -54.38,-6.27 -72.55,-17.95 -18.17,-11.7 -27.67,-30.08 -27.67,-54.36l0 -172.04 -29.93 0 0 -12.47 29.93 0 0 -52.37c0,-6.31 -1.18,-10.71 -3.5,-13.21 -2.33,-2.5 -5.15,-3.74 -8.46,-3.74 -4.34,0 -9.43,1.85 -14.47,4.73 -5.04,2.89 -10.65,7.4 -15.96,12.72 0,-6.31 1.74,-12.47 5.23,-18.46 3.49,-5.98 8.42,-11.67 13.96,-16.21 5.54,-4.56 12.91,-8.91 20.45,-11.47 7.54,-2.54 16.04,-4.24 24.69,-4.24zm315.66 359.06c-22.27,0 -42.41,-3.59 -59.59,-9.97 -17.17,-6.38 -32.17,-15.96 -44.13,-27.93 -11.97,-11.97 -21.3,-26.55 -27.17,-42.88 -5.87,-16.37 -9.22,-34.92 -9.22,-54.86 0,-19.95 3.25,-38.09 8.97,-53.61 5.7,-15.52 15.16,-29.53 26.69,-40.4 11.53,-10.85 26.26,-19.7 43.38,-25.68 17.12,-5.98 36.66,-8.97 58.6,-8.97 9.63,0 20.61,1.24 32.91,3.74 12.3,2.5 24.22,6.83 34.91,12.22 10.7,5.37 20.19,13.13 27.68,22.43 7.48,9.31 11.21,20.78 11.21,34.41 0,11.31 -3.02,21.31 -8.23,29.18 -5.2,7.87 -12.71,14.87 -21.69,20.19 -8.97,5.32 -19.11,9.49 -30.42,12.47 -11.3,3 -23.12,5.53 -34.65,6.74 -11.53,1.22 -23.64,2.67 -34.67,2.73 -11.04,0.06 -21.28,0.5 -29.92,0.5 0.33,21.94 1.68,40.1 3.23,53.61 1.56,13.54 5.03,24.71 8.74,31.92 3.72,7.21 9.58,12.83 15.96,15.22 6.36,2.39 14.62,3.99 23.94,3.99 17.3,0 35.44,-3.59 53.61,-9.97 18.19,-6.38 34.34,-16.63 47.63,-29.92 0,6.31 -2.36,12.97 -6.24,19.19 -3.88,6.2 -10.59,12.66 -18.44,17.7 -7.89,5.04 -18.3,9.65 -30.43,12.98 -12.14,3.31 -26.35,4.98 -42.64,4.98zm-55.35 -132.16c9.97,-0.66 19.9,-2.01 28.93,-3.24 9.03,-1.21 17.8,-4.68 24.68,-8.73 6.86,-4.05 13.16,-10.73 17.21,-18.44 4.06,-7.7 6.47,-18.63 6.47,-31.92 0,-6.99 -0.94,-14.23 -1.99,-20.95 -1.06,-6.69 -3.68,-13.41 -6.24,-18.46 -2.55,-5.04 -6.39,-9.63 -10.71,-12.96 -4.32,-3.33 -9.47,-5 -15.46,-5 -5.98,0 -11.83,2.2 -16.71,5.75 -4.87,3.55 -9.64,10.38 -13.46,19.7 -3.83,9.3 -7.19,21.88 -9.24,36.89 -2.06,15.02 -3.48,34.42 -3.48,57.35z"/>
  <path class="fil5 str0" d="M2531.48 1906.19c74.92,0 135.65,60.73 135.65,135.65 0,74.91 -60.73,135.69 -135.65,135.69 -74.93,0 -135.65,-60.77 -135.65,-135.69 0,-74.93 60.73,-135.65 135.65,-135.65z"/>
  <path class="fil5 str0" d="M5239.83 1906.19c74.92,0 135.65,60.73 135.65,135.65 0,74.91 -60.73,135.69 -135.65,135.69 -74.93,0 -135.65,-60.77 -135.65,-135.69 0,-74.93 60.73,-135.65 135.65,-135.65z"/>
 </g>
</svg>
